<?xml version="1.0" encoding="utf-8"?>
<!-- Generator: Adobe Illustrator 27.3.1, SVG Export Plug-In . SVG Version: 6.00 Build 0)  -->
<svg version="1.1" id="Слой_3_00000000911306256936454240000003346047828242122407_"
	 xmlns="http://www.w3.org/2000/svg" xmlns:xlink="http://www.w3.org/1999/xlink" x="0px" y="0px" viewBox="0 0 1920 1080"
	 style="enable-background:new 0 0 1920 1080;" xml:space="preserve">
<style type="text/css">
	.st0{fill:#1C1C1C;}
	.st1{fill:#7C7C7C;}
	.st2{fill:#595959;}
	.st3{fill:#323232;}
	.st4{fill:#CCFFF1;}
	.st5{fill:#171713;}
	.st6{fill:none;stroke:#000000;stroke-width:3;stroke-miterlimit:10;}
	.st7{fill:none;stroke:#7C7C7C;stroke-width:3;stroke-miterlimit:10;}
	.st8{fill:none;stroke:#000000;stroke-width:3;stroke-linecap:round;stroke-linejoin:round;}
	.st9{fill:#CCFFF1;stroke:#000000;stroke-width:3;stroke-miterlimit:10;}
	.st10{fill:none;stroke:#000000;stroke-width:0.5;stroke-linecap:round;stroke-linejoin:round;}
	.st11{fill:none;stroke:#000000;stroke-width:8;stroke-linejoin:round;}
	.st12{fill:none;stroke:#000000;stroke-width:3;stroke-linejoin:round;}
	.st13{fill:#323232;stroke:#000000;stroke-width:3;stroke-linejoin:round;}
	.st14{fill:#323232;stroke:#000000;stroke-width:3;stroke-miterlimit:10;}
</style>
<g id="XMLID_00000049198295427879004700000015725403911326388119_">
	<g>
		<path class="st0" d="M840.2,527.3l8.7,3.6c0,0-4.6,17.9-4.6,20.4c0,2.6-219.6,94.5-219.6,94.5l-66.4,7.7l-8.2-2.5l-113-34.4
			l-4.5-1.4l-21.6,6.2c0,0,0.5-9.3,0-18c-0.5-8.7-7.5-18-7.5-18l3.7-5.4l2.4-3.5l50.4-9.4l8.9-1.6l16.3,3.3l-18.9,11.2l4.2,26.6
			l-17.5,4.1l27.7,8.3c0,0,0,0,0,0l55.1,16.5l26,7.8l47.5-8.7l90.5-37L833,543.1L840.2,527.3z"/>
		<path class="st1" d="M840.2,527.3l-7.1,15.8l-133.2,54.4c0,0-4.7-2.3-13.9-4.4c-9.2-2-26.6,6.1-42.4,13.3
			c-15.8,7.2-43.4,3.6-64.3,7.6c-20.9,4.1-43.3,21.3-43.3,21.3l-55.1-16.5c0.8-0.2,34.8-9.9,51.9-14c17.4-4.1,52.8-6.1,52.8-6.1
			l49.7-12.9c0,0,16-9.2,19.1-10.3c3.1-1,120.5-29.4,120.5-29.4l52.1-17.8l7.7-0.6L840.2,527.3z"/>
		<path class="st0" d="M834.5,527.3l0,0.5l-7.7,0.6l-29.1,2.4c-2.5-2.4-36.2-13-36.7-13.2c13.4-0.1,35.5-0.3,37.3,0.1
			c2.5,0.5,21.8-6.5,21.8-6.5l14.5,4V527.3z"/>
		<path class="st2" d="M826.9,528.4l-52.1,17.8c0,0-117.5,28.4-120.5,29.4c-3.1,1-19.1,10.3-19.1,10.3l-49.7,12.9
			c0,0-35.4,2-52.8,6.1c-17.2,4.1-51.2,13.8-51.9,14c0,0,0,0,0,0l-27.7-8.3l17.5-4.1l86.1-20h21.1l32.2-7.1l17.9-5.6
			c0,0,8.7-9.2,12.3-8.5c3.6,0.8,56.7-9.4,56.7-9.4l23-7.2l57.2-16.3l20.9-1.7L826.9,528.4z"/>
		<path class="st2" d="M761,517.5c-6,0-10.2,0.1-10.2,0.1l-70,12.5l-26,3.3l-36.9,4.6h-55l-8.2-10.7l-4.7,0.6l-16.9,2.1l-66.7,8.1
			c0,0,10.7-3.1,16.9-5.1c3.8-1.3,15.2-9.9,27-16.9v0h8.2v8.2l108.3-18.7c79.2,0.2,178.2,1.3,178.2,1.3l15.2,4.2
			c0,0-19.2,7-21.8,6.5C796.5,517.2,774.5,517.4,761,517.5z"/>
		<path class="st1" d="M797.8,530.7l-20.9,1.7l-57.2,16.3l-23,7.2c0,0-53.1,10.2-56.7,9.4c-3.6-0.8-12.3,8.5-12.3,8.5l-17.9,5.6
			l-32.2,7.1h-21.1l2.6-0.6l14.8-3.5l30.1-16.7l-5.6-13.9l-33.2-5.6l-15.3,3.1l12.8-11.2h55l36.9-4.6l26-3.3l70-12.5
			c0,0,4.3,0,10.2-0.1C761.6,517.7,795.2,528.3,797.8,530.7z"/>
		<path class="st3" d="M699.9,597.5l-90.5,37l-47.5,8.7l-26-7.8c0,0,22.4-17.2,43.3-21.3c20.9-4.1,48.5-0.4,64.3-7.6
			c15.8-7.2,33.2-15.3,42.4-13.3C695.2,595.2,699.9,597.5,699.9,597.5z M580.9,630.9c5.8-0.7,10.3-3.1,10-5.5
			c-0.3-2.4-5.2-3.8-11-3.1s-10.3,3.2-10,5.5C570.1,630.2,575.1,631.6,580.9,630.9z"/>
		<path class="st0" d="M626.7,505.5l-108.3,18.7V516h-8.2v0c7.2-4.3,14.5-7.9,20.5-9.1C536.8,505.7,578,505.4,626.7,505.5z"/>
		<polygon class="st0" points="598.6,551.8 604.3,565.7 574.1,582.4 573.1,573.2 569.5,555.9 565.5,546.2 		"/>
		<path class="st4" d="M590.9,625.4c0.3,2.4-4.2,4.9-10,5.5c-5.8,0.7-10.8-0.7-11-3.1c-0.3-2.4,4.2-4.9,10-5.5
			S590.6,623,590.9,625.4z"/>
		<path class="st5" d="M573.1,573.2l1,9.2l-14.8,3.5c0.4-3.2-2-24.9-3.1-29c-1.1-4.1-6.1-7.6-6.1-7.6l15.3-3.1l4.1,9.7L573.1,573.2z
			"/>
		<path class="st0" d="M550.1,528.4l-0.1-0.5l4.7-0.6l8.2,10.7l-12.8,11.2l-3.8,0.8v0C546.4,550,548.3,528.4,550.1,528.4z"/>
		<path class="st1" d="M556.2,556.8c1.1,4.2,3.4,25.9,3.1,29l-2.6,0.6l-86.1,20l-4.2-26.6l18.9-11.2l-16.3-3.3l12.2-2.3l65.2-13
			l3.8-0.8C550.1,549.3,555.2,552.7,556.2,556.8z"/>
		<polygon class="st0" points="550.1,650.9 550.1,650.9 453.1,672.3 417.9,667.2 437.1,616.5 		"/>
		<path class="st0" d="M550,527.9l0.1,0.5c-1.7,0-3.7,21.6-3.7,21.6s-0.7-6.6-3.1-10c-2.4-3.4-10.2-10-10.2-10L550,527.9z"/>
		<path class="st1" d="M546.4,550L546.4,550l-65.2,13l-12.2,2.3l-8.9,1.6l-2.4-15.2l25.5-11.8l-16.9-2l66.7-8.1c0,0,7.8,6.6,10.2,10
			C545.7,543.4,546.4,550,546.4,550z"/>
		<path class="st0" d="M483.2,540l-25.5,11.8l2.4,15.2l-50.4,9.4l-2.4,3.5c0,0-1.7-8.6-3.7-12.2c-2-3.6-5.6-11.7-5.6-11.7
			s2.6-7.2,7.7-7.2c5.1,0,52.1-11.7,52.1-11.7l8.7,1L483.2,540z"/>
		<path class="st0" d="M411,603.3c0.5,8.7,0,18,0,18l-17.7,5c-4.1-7.1-4.1-41.1-4.1-41.1h4.1h10.2
			C403.6,585.2,410.5,594.6,411,603.3z"/>
		<path class="st0" d="M407.3,579.8l-3.7,5.4h-10.2c0,0-5.1-8.9-7.7-14.5c-2.6-5.6,0-11.8,0-11.8l12.3-3.1c0,0,3.6,8.2,5.6,11.7
			C405.6,571.2,407.3,579.8,407.3,579.8z"/>
	</g>
	<g>
		<polyline class="st6" points="565.5,546.2 569.5,555.9 573.1,573.2 574.1,582.4 		"/>
		<polyline class="st6" points="469,565.3 485.3,568.7 466.4,579.9 470.6,606.5 		"/>
		<path class="st6" d="M393.4,585.2c0,0-5.1-8.9-7.7-14.5c-2.6-5.6,0-11.8,0-11.8l12.3-3.1c0,0,2.6-7.2,7.7-7.2
			c5.1,0,52.1-11.7,52.1-11.7l8.7,1l16.9,2l-25.5,11.8l2.4,15.2"/>
		<path class="st6" d="M834.5,527.3V515l-14.5-4l-15.2-4.2c0,0-99-1.2-178.2-1.3c-48.7-0.1-90,0.2-96,1.3c-6,1.1-13.3,4.8-20.5,9.1
			c-11.8,7.1-23.2,15.7-27,16.9c-6.1,2-16.9,5.1-16.9,5.1l66.7-8.1l16.9-2.1l4.7-0.6l8.2,10.7"/>
		<polyline class="st6" points="437.1,616.5 417.9,667.2 453.1,672.3 550.1,650.9 		"/>
		<path class="st6" d="M535.9,635.4c0,0,22.4-17.2,43.3-21.3c20.9-4.1,48.5-0.4,64.3-7.6c15.8-7.2,33.2-15.3,42.4-13.3
			c9.2,2,13.9,4.4,13.9,4.4"/>
		<path class="st7" d="M480.8,618.9c0.8-0.2,34.8-9.9,51.9-14c17.4-4.1,52.8-6.1,52.8-6.1l49.7-12.9c0,0,16-9.2,19.1-10.3
			c3.1-1,120.5-29.4,120.5-29.4l52.1-17.8"/>
		<path class="st6" d="M480.8,618.9l-27.7-8.3l17.5-4.1l86.1-20l2.6-0.6l14.8-3.5l30.1-16.7l-5.6-13.9l-33.2-5.6l-15.3,3.1l-3.8,0.8
			l-65.2,13l-12.2,2.3l-8.9,1.6l-50.4,9.4l-2.4,3.5l-3.7,5.4h-10.2h-4.1c0,0,0,34,4.1,41.1l17.7-5l21.6-6.2l4.5,1.4l113,34.4
			l8.2,2.5l66.4-7.7c0,0,219.6-91.9,219.6-94.5c0-2.5,4.6-20.4,4.6-20.4l-8.7-3.6"/>
		<path class="st7" d="M480.8,618.9C480.8,618.9,480.8,618.9,480.8,618.9"/>
		<path class="st6" d="M556.6,586.5h21.1l32.2-7.1l17.9-5.6c0,0,8.7-9.2,12.3-8.5c3.6,0.8,56.7-9.4,56.7-9.4l23-7.2l57.2-16.3
			l20.9-1.7l29.1-2.4l7.7-0.6l5.6-0.5l-7.1,15.8l-133.2,54.4l-90.5,37l-47.5,8.7l-26-7.8l-55.1-16.5"/>
		<polyline class="st6" points="510.2,516 518.5,516 518.5,524.2 626.7,505.5 		"/>
		<path class="st6" d="M820.1,511c0,0-19.2,7-21.8,6.5c-1.8-0.4-23.8-0.2-37.3-0.1c-6,0-10.2,0.1-10.2,0.1l-70,12.5l-26,3.3
			l-36.9,4.6h-55l-12.8,11.2c0,0,5,3.4,6.1,7.6c1.1,4.2,3.4,25.9,3.1,29"/>
		<path class="st6" d="M797.8,530.7c-2.5-2.4-36.2-13-36.7-13.2c0,0,0,0,0,0"/>
		<path class="st6" d="M590.9,625.4c-0.3-2.4-5.2-3.8-11-3.1s-10.3,3.2-10,5.5c0.3,2.4,5.2,3.8,11,3.1
			C586.7,630.2,591.2,627.8,590.9,625.4z"/>
		<path class="st6" d="M403.6,585.2c0,0,6.9,9.3,7.5,18c0.5,8.7,0,18,0,18"/>
		<path class="st6" d="M398,555.9c0,0,3.6,8.2,5.6,11.7c2,3.6,3.7,12.2,3.7,12.2"/>
		<path class="st8" d="M550.1,528.4C550.1,528.4,550.1,528.4,550.1,528.4c-1.8,0-3.8,21.6-3.8,21.6s-0.7-6.6-3.1-10
			c-2.4-3.4-10.2-10-10.2-10"/>
	</g>
</g>
<line class="st9" x1="389.3" y1="590.4" x2="406.8" y2="590.4"/>
<path class="st6" d="M389.3,598.3h20.8c11.3-0.5,57.9-7.9,57.9-7.9"/>
<line class="st9" x1="389.3" y1="606.5" x2="411.2" y2="606.5"/>
<line class="st9" x1="389.3" y1="616.5" x2="411.3" y2="614.1"/>
<line class="st9" x1="384.6" y1="565.3" x2="400.3" y2="561.1"/>
<line class="st9" x1="387.1" y1="573.6" x2="403.6" y2="567.6"/>
<line class="st9" x1="392.4" y1="579.8" x2="405.8" y2="573.6"/>
<path class="st6" d="M506.6,558c0,0,7.2,2.4,7.8,12.7c0.5,10.3,3.3,24.9,3.3,24.9"/>
<path class="st6" d="M499,534.1c4.6,2.9,6.5,4,7.6,10.1c1.1,6.1,5.5,12.7,5.5,12.7"/>
<line class="st6" x1="580.4" y1="550" x2="574.1" y2="579.8"/>
<path class="st10" d="M556.2,548"/>
<path class="st11" d="M535.9,529.5c0,0,3.7,6.2,5.5,9.3c1.8,3,5.5,11.8,5.5,11.8"/>
<path class="st6" d="M526.8,632.7l29.4-18.5l36.8-7.7c0,0,35.2-2.8,36.8-3.2c1.5-0.4,42.9-17.4,42.9-17.4l64.1-3.4"/>
<polyline class="st6" points="517.6,629.9 554.2,607.6 603.2,598.3 626.7,598.3 667.6,579.8 753.5,575.6 "/>
<path class="st12" d="M510.3,627.7l42.9-29.4l47.7-7.9h23.5c0,0,41.8-17.7,43.4-18.1c1.6-0.4,100.6-2.7,100.6-2.7"/>
<polyline class="st13" points="777,566 780.7,554.1 795.7,542.4 809.4,552.8 "/>
<path class="st14" d="M712.8,506c0,0,8.2,7.3,9.2,7.3c1,0,19.9-2.2,19.9-2.2l2.8-5.1"/>
<path class="st12" d="M657.9,506c-2.5-0.4-89.4,15.8-89.4,15.8l-46.4,6.6l-21-6.6"/>
<line class="st12" x1="559.8" y1="530.7" x2="682.9" y2="506"/>
<line class="st12" x1="562.9" y1="538" x2="699.9" y2="506"/>
<line class="st6" x1="402.3" y1="565.3" x2="458.4" y2="555.9"/>
<path class="st6" d="M702.4,526.3c2.3-0.4,50.7,12.9,50.7,12.9"/>
<path class="st14" d="M602.2,560.6c5.1-1.6,98.3-13.3,97.7-15.1c-0.6-1.8-4.2-7.4-4.2-7.4l-111.8,11.3"/>
</svg>
